# xmcd
#
# Track frame offsets:
# 150
# 18620
# 55498
# 69745
# 82800
# 103078
# 110648
# 119345
# 135698
# 146963
# 159250
#
# Disc length: 2245 seconds
#
#
# Revision: 0
# Processed by: cddbd v1.5.1PL2 Copyright (c) Steve Scherf et al.
# Submitted via: FreeRIP 2.944 
#
DISCID=9f08c30b
DTITLE=Ella Fitzgerald - Ella
DYEAR=1900
DGENRE=Swing
TTITLE0=Mr. Paganini
TTITLE1=How High The Monn
TTITLE2=Starlit Hour
TTITLE3=Sing Song Swing
TTITLE4=Flying Home
TTITLE5=Lemon Drop
TTITLE6=Old Mother Hubbard
TTITLE7=There is A Small Hotel
TTITLE8=Robins Nest
TTITLE9=As You Desire Me
TTITLE10=Throu Swell
EXTD=
EXTT0=
EXTT1=
EXTT2=
EXTT3=
EXTT4=
EXTT5=
EXTT6=
EXTT7=
EXTT8=
EXTT9=
EXTT10=
PLAYORDER=
